<svg xmlns="http://www.w3.org/2000/svg" width="256" height="256" viewBox="0 0 256 256"><defs><linearGradient id="g" x1="0" y1="0" x2="1" y2="1"><stop stop-color="#ff512f"/><stop offset="1" stop-color="#f09819"/></linearGradient></defs><rect width="256" height="256" rx="48" fill="url(#g)"/><path d="M69 183c49-8 77-36 83-85 18 20 28 45 17 77 16-12 25-29 28-49 18 42-8 82-45 94-35 11-71-3-83-37Z" fill="#fff" opacity=".94"/><path d="M111 44c13 26 8 48-9 69 22-7 39-21 50-42 5 47-23 78-60 93 4-21-4-39-22-54 22-8 35-29 41-66Z" fill="#151515" opacity=".72"/><text x="128" y="228" text-anchor="middle" font-family="Arial" font-size="25" font-weight="700" fill="#fff">FREE FIRE</text></svg>