<svg xmlns="http://www.w3.org/2000/svg" width="256" height="256" viewBox="0 0 256 256"><defs><linearGradient id="g" x1="0" y1="0" x2="1" y2="1"><stop stop-color="#6c5ce7"/><stop offset="1" stop-color="#00d4ff"/></linearGradient></defs><rect width="256" height="256" rx="48" fill="url(#g)"/><path d="M66 133c0-31 25-56 56-56h12c31 0 56 25 56 56v15c0 17-14 31-31 31-12 0-23-7-28-18h-6c-5 11-16 18-28 18-17 0-31-14-31-31v-15Z" fill="#fff" opacity=".95"/><path d="M91 123h18v-18h16v18h18v16h-18v18h-16v-18H91z" fill="#121a31"/><circle cx="160" cy="119" r="9" fill="#121a31"/><circle cx="181" cy="141" r="9" fill="#121a31"/></svg>