<svg xmlns="http://www.w3.org/2000/svg" width="420" height="420" viewBox="0 0 420 420">
<defs>
  <linearGradient id="g" x1="0" y1="0" x2="1" y2="1">
    <stop offset="0" stop-color="#0f0f2e"/>
    <stop offset=".55" stop-color="#0f0f2e"/>
    <stop offset="1" stop-color="#6366f1"/>
  </linearGradient>
  <radialGradient id="r1" cx="25%" cy="15%" r="70%">
    <stop offset="0" stop-color="#6366f1" stop-opacity=".55"/>
    <stop offset="1" stop-color="#6366f1" stop-opacity="0"/>
  </radialGradient>
  <filter id="shadow"><feDropShadow dx="0" dy="10" stdDeviation="12" flood-color="#6366f1" flood-opacity=".28"/></filter>
</defs>
<rect width="420" height="420" rx="34" fill="url(#g)"/>
<rect width="420" height="420" rx="34" fill="url(#r1)"/>
<g opacity=".14">
  <path d="M-40 80h500M-40 150h500M-40 220h500M-40 290h500M-40 360h500" stroke="#fff"/>
  <path d="M70-40v500M140-40v500M210-40v500M280-40v500M350-40v500" stroke="#fff"/>
</g>
<rect x="14" y="14" width="392" height="392" rx="31" fill="none" stroke="#6366f1" stroke-opacity=".55" stroke-width="3"/>
<rect x="28" y="28" width="98" height="98" rx="25" fill="#6366f1" fill-opacity=".18" stroke="#6366f1" stroke-opacity=".75" stroke-width="2"/>
<text x="77" y="91" text-anchor="middle" font-family="Arial, sans-serif" font-size="43" font-weight="900" fill="#fff" filter="url(#shadow)">✨</text>
<rect x="250" y="32" width="140" height="36" rx="18" fill="#000" fill-opacity=".38" stroke="#6366f1" stroke-opacity=".55"/>
<text x="320" y="56" text-anchor="middle" font-family="Arial, sans-serif" font-size="15" font-weight="900" fill="#6366f1">RPG</text>
<rect x="24" y="270" width="372" height="116" rx="27" fill="#000" fill-opacity=".42" stroke="#fff" stroke-opacity=".08"/>
<text x="210" y="326" text-anchor="middle" font-family="Arial, sans-serif" font-size="32" font-weight="900" fill="#fff" textLength="300" lengthAdjust="spacingAndGlyphs">Destiny: Rising</text>
<rect x="80" y="358" width="260" height="8" rx="4" fill="#6366f1"/>
</svg>